custom-analysis
version=1
nRows=4
nColumns=98
inDegrees=no

This file contains tibia displacement and acting force.

Units are S.I. units (seconds, meters, Newtons, ...)
Angles are in degrees.

endheader
time	APT	SIT	knee_angle	aACL_R_force	pACL_R_force	aPCL_R_force	pPCL_R_force	aMCL_R_force	mMCL_R_force	pMCL_R_force	aLCL_R_force	mLCL_R_force	pLCL_R_force	aPCL_L_force	pPCL_L_force	aMCL_L_force	aLCL_L_force	aACL_R_length	pACL_R_length	aPCL_R_length	pPCL_R_length	aMCL_R_length	mMCL_R_length	pMCL_R_length	aLCL_R_length	mLCL_R_length	pLCL_R_length	aPCL_L_length	pPCL_L_length	aMCL_L_length	aLCL_L_length	aACL_R_strain	pACL_R_strain	aPCL_R_strain	pPCL_R_strain	aMCL_R_strain	mMCL_R_strain	pMCL_R_strain	aLCL_R_strain	mLCL_R_strain	pLCL_R_strain	aPCL_L_strain	pPCL_L_strain	aMCL_L_strain	aLCL_L_strain	femur_lat_meniscii_r.femur_lat_r.force.X	femur_lat_meniscii_r.femur_lat_r.force.Y	femur_lat_meniscii_r.femur_lat_r.force.Z	femur_lat_meniscii_r.femur_lat_r.torque.X	femur_lat_meniscii_r.femur_lat_r.torque.Y	femur_lat_meniscii_r.femur_lat_r.torque.Z	femur_lat_meniscii_r.meniscus_lat_r.force.X	femur_lat_meniscii_r.meniscus_lat_r.force.Y	femur_lat_meniscii_r.meniscus_lat_r.force.Z	femur_lat_meniscii_r.meniscus_lat_r.torque.X	femur_lat_meniscii_r.meniscus_lat_r.torque.Y	femur_lat_meniscii_r.meniscus_lat_r.torque.Z	femur_med_meniscii_r.femur_med_r.force.X	femur_med_meniscii_r.femur_med_r.force.Y	femur_med_meniscii_r.femur_med_r.force.Z	femur_med_meniscii_r.femur_med_r.torque.X	femur_med_meniscii_r.femur_med_r.torque.Y	femur_med_meniscii_r.femur_med_r.torque.Z	femur_med_meniscii_r.meniscus_med_r.force.X	femur_med_meniscii_r.meniscus_med_r.force.Y	femur_med_meniscii_r.meniscus_med_r.force.Z	femur_med_meniscii_r.meniscus_med_r.torque.X	femur_med_meniscii_r.meniscus_med_r.torque.Y	femur_med_meniscii_r.meniscus_med_r.torque.Z	femur_med_tibia_r.tibia_upper_r.force.X	femur_med_tibia_r.tibia_upper_r.force.Y	femur_med_tibia_r.tibia_upper_r.force.Z	femur_med_tibia_r.tibia_upper_r.torque.X	femur_med_tibia_r.tibia_upper_r.torque.Y	femur_med_tibia_r.tibia_upper_r.torque.Z	femur_med_tibia_r.femur_med_r.force.X	femur_med_tibia_r.femur_med_r.force.Y	femur_med_tibia_r.femur_med_r.force.Z	femur_med_tibia_r.femur_med_r.torque.X	femur_med_tibia_r.femur_med_r.torque.Y	femur_med_tibia_r.femur_med_r.torque.Z	femur_lat_tibia_r.tibia_upper_r.force.X	femur_lat_tibia_r.tibia_upper_r.force.Y	femur_lat_tibia_r.tibia_upper_r.force.Z	femur_lat_tibia_r.tibia_upper_r.torque.X	femur_lat_tibia_r.tibia_upper_r.torque.Y	femur_lat_tibia_r.tibia_upper_r.torque.Z	femur_lat_tibia_r.femur_lat_r.force.X	femur_lat_tibia_r.femur_lat_r.force.Y	femur_lat_tibia_r.femur_lat_r.force.Z	femur_lat_tibia_r.femur_lat_r.torque.X	femur_lat_tibia_r.femur_lat_r.torque.Y	femur_lat_tibia_r.femur_lat_r.torque.Z	femur_lat_meniscii_force_r	femur_med_meniscii_force_r	femur_lat_tibia_force_r	femur_med_tibia_force_r
      0.16946625	      0.01182217	      0.01542931	     55.45285360	     29.91369980	     19.76794217	    803.03142000	    516.04944381	      0.00000000	      0.00000000	      0.00000000	    -15.49008560	      0.00000000	      0.00000000	      0.00000000	      0.00000000	      0.00000001	      0.00000000	      0.03271487	      0.02603597	      0.03623284	      0.03333645	      0.05893599	      0.05856129	      0.05558367	      0.05612635	      0.05143944	      0.04664218	      0.01525851	      0.01651186	      0.06550154	      0.04489616	      0.05513125	      0.03899920	      0.16521915	      0.11538658	     -0.01817537	     -0.02060782	     -0.05354053	      0.00266445	     -0.08663496	     -0.10890764	      0.00000079	     -0.32847694	      0.00000060	     -0.00000086	    370.95351919	    274.31614024	     94.81619079	    -44.82222685	      9.24777920	    148.64994919	   -370.95351919	   -274.31614024	    -94.81619079	      8.85638144	    -11.83939370	     -0.44131001	    773.33283761	    493.69601393	    -44.96367403	     27.60391753	    -14.69344823	    307.78698641	   -773.33283761	   -493.69601393	     44.96367403	     -9.13644118	     13.77405881	     -0.25858069	   -136.98436024	   -299.34186850	    105.52061724	     -6.59092896	      4.33976095	      3.84049706	    136.98436024	    299.34186850	   -105.52061724	     47.98562040	     -2.69993695	     54.54897665	      0.00000000	      0.00000000	      0.00000000	      0.00000000	      0.00000000	      0.00000000	      0.00000000	      0.00000000	      0.00000000	      0.00000000	      0.00000000	      0.00000000	    471.00527410	    918.58650321	      0.00000000	    345.69476399
      0.16995356	      0.01185406	      0.01550848	     55.68093045	     29.50033336	     19.36655545	    807.07640618	    517.49660021	      0.00000000	      0.00000000	      0.00000000	    -16.99820867	      0.00000000	      0.00000000	      0.00000000	      0.00000000	      0.00000001	      0.00000000	      0.03272329	      0.02604563	      0.03625849	      0.03335361	      0.05895425	      0.05856399	      0.05557528	      0.05611767	      0.05142120	      0.04661660	      0.01525851	      0.01651186	      0.06550154	      0.04489616	      0.05540277	      0.03938477	      0.16604422	      0.11596059	     -0.01787109	     -0.02056263	     -0.05368346	      0.00250944	     -0.08695878	     -0.10939628	      0.00000079	     -0.32847694	      0.00000060	     -0.00000086	    374.99938916	    276.68403296	     94.74489478	    -44.83974946	      9.32492241	    150.25757578	   -374.99938916	   -276.68403296	    -94.74489478	      8.89805501	    -11.92760943	     -0.40005110	    774.51760474	    494.24855611	    -45.87624873	     27.89575181	    -14.60377871	    308.19177378	   -774.51760474	   -494.24855611	     45.87624873	     -9.07780106	     13.71099195	     -0.11131888	   -139.23229676	   -299.67589487	    104.32000635	     -6.54890204	      4.34683116	      3.83504571	    139.23229676	    299.67589487	   -104.32000635	     47.48380893	     -2.72445135	     55.45990105	      0.00000000	      0.00000000	      0.00000000	      0.00000000	      0.00000000	      0.00000000	      0.00000000	      0.00000000	      0.00000000	      0.00000000	      0.00000000	      0.00000000	    475.55776836	    919.92596738	      0.00000000	    346.51686560
      0.17036098	      0.01188078	      0.01557510	     55.87157396	     29.64023439	     19.45038977	    810.50309862	    518.91424994	      0.00000000	      0.00000000	      0.00000000	    -17.43831432	      0.00000000	      0.00000000	      0.00000000	      0.00000000	      0.00000001	      0.00000000	      0.03273002	      0.02605336	      0.03627947	      0.03336750	      0.05896918	      0.05856594	      0.05556805	      0.05610999	      0.05140556	      0.04659487	      0.01525851	      0.01651186	      0.06550154	      0.04489616	      0.05561977	      0.03969337	      0.16671879	      0.11642539	     -0.01762235	     -0.02052993	     -0.05380652	      0.00237213	     -0.08723655	     -0.10981149	      0.00000079	     -0.32847694	      0.00000060	     -0.00000086	    379.97989908	    275.87589236	     95.33173308	    -45.05325716	      9.43958375	    152.29751917	   -379.97989908	   -275.87589236	    -95.33173308	      8.87587487	    -12.06702081	     -0.49576179	    781.28335423	    498.49337669	    -47.82565633	     28.72888505	    -14.69653798	    310.84154827	   -781.28335423	   -498.49337669	     47.82565633	     -9.15150342	     13.83542994	      0.00051586	   -141.15783087	   -299.27391687	    103.61715097	     -6.51490257	      4.36174650	      3.81142485	    141.15783087	    299.27391687	   -103.61715097	     47.17988305	     -2.74850557	     56.24602039	      0.00000000	      0.00000000	      0.00000000	      0.00000000	      0.00000000	      0.00000000	      0.00000000	      0.00000000	      0.00000000	      0.00000000	      0.00000000	      0.00000000	    479.14545915	    928.00141143	      0.00000000	    346.73754413
      0.17071732	      0.01190412	      0.01563345	     56.03827142	     29.57701430	     19.43592395	    813.68243842	    520.70666547	      0.00000000	      0.00000000	      0.00000000	    -17.69367153	      0.00000000	      0.00000000	      0.00000000	      0.00000000	      0.00000001	      0.00000000	      0.03273581	      0.02606003	      0.03629768	      0.03337953	      0.05898220	      0.05856764	      0.05556178	      0.05610316	      0.05139180	      0.04657583	      0.01525851	      0.01651186	      0.06550154	      0.04489616	      0.05580652	      0.03995937	      0.16730445	      0.11682779	     -0.01740549	     -0.02050155	     -0.05391321	      0.00225024	     -0.08748081	     -0.11017529	      0.00000079	     -0.32847694	      0.00000060	     -0.00000086	    381.54257497	    277.59500017	     97.07037587	    -45.79977162	      9.49209309	    152.90256906	   -381.54257497	   -277.59500017	    -97.07037587	      8.94856542	    -12.15778130	     -0.43292326	    782.83124686	    483.93881429	    -47.23952354	     28.12955486	    -14.65954357	    311.59694367	   -782.83124686	   -483.93881429	     47.23952354	     -8.81311923	     13.79347629	     -0.36633179	   -142.16646160	   -299.56697591	    103.33960085	     -6.50306727	      4.37592438	      3.82832605	    142.16646160	    299.56697591	   -103.33960085	     47.06351869	     -2.76290861	     56.64744573	      0.00000000	      0.00000000	      0.00000000	      0.00000000	      0.00000000	      0.00000000	      0.00000000	      0.00000000	      0.00000000	      0.00000000	      0.00000000	      0.00000000	    481.72230435	    921.54929853	      0.00000000	    347.31937603
